<?xml version="1.0" encoding="UTF-8" standalone="no"?>
<!-- Created with Inkscape (http://www.inkscape.org/) -->

<svg
   xmlns:dc="http://purl.org/dc/elements/1.1/"
   xmlns:cc="http://creativecommons.org/ns#"
   xmlns:rdf="http://www.w3.org/1999/02/22-rdf-syntax-ns#"
   xmlns:svg="http://www.w3.org/2000/svg"
   xmlns="http://www.w3.org/2000/svg"
   xmlns:sodipodi="http://sodipodi.sourceforge.net/DTD/sodipodi-0.dtd"
   xmlns:inkscape="http://www.inkscape.org/namespaces/inkscape"
   width="1000"
   height="800"
   viewBox="0 0 264.58333 211.66681"
   version="1.1"
   id="svg5088"
   sodipodi:docname="logo.svg"
   inkscape:version="0.92.4 (5da689c313, 2019-01-14)">
  <defs
     id="defs5082" />
  <sodipodi:namedview
     id="base"
     pagecolor="#ffffff"
     bordercolor="#666666"
     borderopacity="1.0"
     inkscape:pageopacity="0.0"
     inkscape:pageshadow="2"
     inkscape:zoom="0.49497475"
     inkscape:cx="248.64218"
     inkscape:cy="444.71404"
     inkscape:document-units="px"
     inkscape:current-layer="layer2"
     showgrid="true"
     inkscape:window-width="1920"
     inkscape:window-height="1001"
     inkscape:window-x="-9"
     inkscape:window-y="-9"
     inkscape:window-maximized="1"
     showguides="false"
     units="px" />
  <metadata
     id="metadata5085">
    <rdf:RDF>
      <cc:Work
         rdf:about="">
        <dc:format>image/svg+xml</dc:format>
        <dc:type
           rdf:resource="http://purl.org/dc/dcmitype/StillImage" />
        <dc:title />
      </cc:Work>
    </rdf:RDF>
  </metadata>
  <g
     inkscape:label="Layer 1"
     inkscape:groupmode="layer"
     id="layer1"
     transform="translate(0,-85.333314)">
    <flowRoot
       xml:space="preserve"
       id="flowRoot5246"
       style="font-style:normal;font-weight:normal;font-size:40px;line-height:1.25;font-family:sans-serif;letter-spacing:0px;word-spacing:0px;fill:#000000;fill-opacity:1;stroke:none"><flowRegion
         id="flowRegion5248"><rect
           id="rect5250"
           width="731.35046"
           height="610.13214"
           x="6.0609155"
           y="217.423" /></flowRegion><flowPara
         id="flowPara5252" /></flowRoot>  </g>
  <g
     inkscape:groupmode="layer"
     id="layer2"
     inkscape:label="Layer 2"
     transform="translate(0,-85.333314)">
    <path
       style="opacity:1;fill:#63c300;fill-opacity:1;stroke:none;stroke-width:0.99133784px;stroke-linecap:butt;stroke-linejoin:miter;stroke-opacity:1"
       d="m 69.94286,99.948408 c -5.017701,59.433012 1.350605,99.558792 14.827551,128.607722 15.367259,27.14524 39.444459,51.10935 89.631109,44.34026 l 0.0125,-0.01 c -0.99309,-4.72048 -2.18645,-9.36563 -3.59375,-13.82669 -27.09452,-0.22216 -52.87611,-2.49374 -75.719825,-38.16958 18.475335,16.86521 34.305015,32.17106 73.566035,31.62237 -4.66196,-17.23156 -9.44982,-27.94175 -15.24085,-40.657 -36.49074,1.54018 -48.88269,-27.49802 -55.378433,-36.18729 28.943313,31.40773 42.194653,29.31911 52.136123,29.61699 -22.42283,-34.96787 -51.029793,-69.20204 -77.613569,-101.39593 33.664679,31.7435 58.844199,66.02369 83.759699,96.89213 6.28115,-14.73399 -1.36271,-36.81368 -9.68097,-57.71188 11.07208,17.76024 22.49334,35.76341 13.12011,64.01502 l 18.16737,39.94437 c 10.80137,-26.41899 2.00071,-54.59874 -4.52098,-78.80329 13.97621,19.15676 22.3174,54.60885 7.21692,86.82603 l 3.06141,10.32615 C 247.50189,161.3079 131.52623,134.17191 69.943691,99.947483 Z"
       id="path4562"
       inkscape:connector-curvature="0" />
  </g>
</svg>
